<svg xmlns="http://www.w3.org/2000/svg" xmlns:xlink="http://www.w3.org/1999/xlink" width="1593" height="383.776" viewBox="0 0 1593 383.776">
  <defs>
    <style>
      .cls-1 {
        fill: #256db5;
        stroke: #707070;
        stroke-linejoin: round;
      }

      .cls-2 {
        filter: url(#Intersection_1);
      }
    </style>
    <filter id="Intersection_1" x="0" y="0" width="1593" height="383.776" filterUnits="userSpaceOnUse">
      <feOffset dy="10" input="SourceAlpha"/>
      <feGaussianBlur stdDeviation="12.5" result="blur"/>
      <feFlood flood-opacity="0.161"/>
      <feComposite operator="in" in2="blur"/>
      <feComposite in="SourceGraphic"/>
    </filter>
  </defs>
  <g class="cls-2" transform="matrix(1, 0, 0, 1, 0, 0)">
    <path id="Intersection_1-2" data-name="Intersection 1" class="cls-1" d="M-106,763.5a46.212,46.212,0,0,1-18.1-3.654,46.342,46.342,0,0,1-14.781-9.966,46.34,46.34,0,0,1-9.965-14.78A46.212,46.212,0,0,1-152.5,717V556.9c11.855-5.2,232.063-99.788,448.306-45.752,222.307,55.552,440.385,95.362,531.425,78.122,89.273-16.906,520.56-129.191,537.268-133.543V717a46.461,46.461,0,0,1-46.5,46.5Z" transform="translate(190.5 -427.72)"/>
  </g>
</svg>
